<?xml version="1.0" standalone="no"?><!DOCTYPE svg PUBLIC "-//W3C//DTD SVG 1.1//EN" "http://www.w3.org/Graphics/SVG/1.1/DTD/svg11.dtd"><svg t="1723475433874" class="icon" viewBox="0 0 1024 1024" version="1.1" xmlns="http://www.w3.org/2000/svg" p-id="1599" xmlns:xlink="http://www.w3.org/1999/xlink" width="200" height="200"><path d="M1017.491619 92.15314l-40.314759-40.314759a17.960332 17.960332 0 0 0-2.346361-2.772973l-42.661121-42.661121A21.202577 21.202577 0 0 0 904.311666 4.399215l-170.644483 127.983362a21.33056 21.33056 0 0 0-8.532224 17.064448v33.830269L538.407234 370.005019C520.74553 340.782152 488.280417 298.760948 447.496385 298.760948c-94.153093 1.407817-110.790931 54.222284-122.992011 92.745276-5.375301 17.021787-10.025363 31.782535-19.752098 41.509271-12.798336 12.798336-36.901869 13.736881-72.182617 13.736881h-4.735384c-38.352348 0-86.04748 0-131.652219 25.340705-39.120248 21.71451-84.383697 69.409643-93.982449 138.051387-11.945114 85.27958 31.61189 178.579451 129.561824 277.254623a24.572806 24.572806 0 0 0 2.389023 2.815634C222.885585 978.992518 307.823876 1024 386.576305 1024c82.634591 0 140.653715-51.619956 165.226521-95.859538 25.383367-45.647399 25.340706-94.665027 25.340705-134.083903 0-32.593096 0-60.749436 13.736881-74.528978 7.508357-7.465696 30.588024-21.842494 52.89979-35.750019 81.568063-50.766734 134.211886-87.071347 122.693383-127.215462-8.74553-30.630685-49.230933-43.684988-139.032592-44.495549a84.89563 84.89563 0 0 1 6.10054-6.271184l207.07708-206.650469h33.830269a21.33056 21.33056 0 0 0 17.064448-8.532224l127.983362-170.644483a21.245238 21.245238 0 0 0-2.005073-27.815051zM304.752276 646.321098a21.33056 21.33056 0 0 1 30.161412 0l42.661121 42.661121a21.33056 21.33056 0 0 1-30.161413 30.161412l-42.66112-42.66112a21.33056 21.33056 0 0 1 0-30.161413z m30.417379 243.296372c-4.266112 4.266112-9.812058 6.399168-15.358004 6.399168a20.050727 20.050727 0 0 1-14.931392-6.399168 20.050727 20.050727 0 0 1-6.399168-14.931393 21.373221 21.373221 0 0 1 42.661121 0c0.042661 5.545946-2.133056 11.091891-5.972557 14.931393z m27.345778-36.261953c-5.545946 0-10.66528-2.133056-14.931392-5.972557-4.266112-4.266112-6.399168-9.812058-6.399168-15.358003a21.373221 21.373221 0 0 1 42.66112 0 21.33056 21.33056 0 0 1-5.972557 14.931392 21.757172 21.757172 0 0 1-15.358003 6.399168z m57.976463 36.261953c-4.266112 4.266112-9.812058 6.399168-15.358003 6.399168a20.050727 20.050727 0 0 1-14.931393-6.399168 20.050727 20.050727 0 0 1-6.399168-14.931393 21.373221 21.373221 0 0 1 42.661121 0c0.042661 5.545946-2.133056 10.66528-5.972557 14.931393z m42.661121-42.661121c-4.266112 4.266112-9.812058 6.399168-15.358004 6.399168a20.050727 20.050727 0 0 1-14.931392-6.399168 20.050727 20.050727 0 0 1-6.399168-14.931392c0-5.545946 2.133056-11.091891 6.399168-14.931392 7.679002-8.105613 22.183783-8.105613 30.289396 0 3.839501 4.266112 5.972557 9.385447 5.972557 14.931392 0.042661 5.545946-2.133056 11.091891-5.972557 14.931392z m-0.255967-213.134959a21.33056 21.33056 0 0 1-30.161412 0l-42.661121-42.661121a21.33056 21.33056 0 0 1 30.161412-30.161412l42.661121 42.661121a21.33056 21.33056 0 0 1 0 30.161412z" p-id="1600"></path></svg>